<?xml version="1.0" encoding="UTF-8" standalone="no"?><!-- Generator: Gravit.io --><svg xmlns="http://www.w3.org/2000/svg" xmlns:xlink="http://www.w3.org/1999/xlink" style="isolation:isolate" viewBox="0 0 216 216" width="216pt" height="216pt"><defs><clipPath id="_clipPath_w4VEc2r9LCYP0j93mnrPZqZnN7XYoseo"><rect width="216" height="216"/></clipPath></defs><g clip-path="url(#_clipPath_w4VEc2r9LCYP0j93mnrPZqZnN7XYoseo)"><path d=" M 150.349 212.121 C 189.121 212.121 205.678 195.537 206.382 155.369 C 205.105 138.913 196.539 131.925 194.811 128.919 C 194.21 127.792 181.022 113.937 189.551 105.175 C 197.666 94.204 198.117 80.905 197.666 72.564 C 197.666 72.564 198.418 48.294 183.54 28.757 C 168.662 9.221 152.958 1.707 128.913 4.412 C 99.383 7.793 79.771 25.677 74.361 47.392 C 70.679 61.969 72.708 75.945 76.089 85.563 C 80.49 100.435 77.701 106.452 26.572 104.348 C 16.653 103.296 -3.409 115.319 0.498 144.774 C 0.874 147.855 1.531 157.672 7.402 170.147 C 17.02 188.106 30.443 212.855 63.612 211.273 L 150.349 212.121 Z " fill="rgb(255,204,0)"/><path d=" M 106.874 135.374 C 99.435 132.518 92.845 131.098 77.141 136.283 C 59.709 142.069 49.489 137.185 36.941 133.728 C 27.023 131.023 22.89 152.889 33.485 169.345 C 69.776 210.213 133.949 195.065 123.657 155.369 C 120.807 143.607 114.313 138.229 106.874 135.374 Z " fill="rgb(255,211,26)"/><path d=" M 167.385 66.102 C 167.385 72.264 163.252 77.298 158.142 77.298 C 153.033 77.298 148.9 72.264 148.9 66.102 C 148.9 59.941 153.033 54.906 158.142 54.906 C 163.252 54.906 167.385 59.941 167.385 66.102 Z " fill="rgb(0,0,0)"/><path d=" M 163.778 62.044 C 163.778 63.622 162.651 64.825 161.223 64.825 C 159.795 64.825 158.668 63.547 158.668 62.044 C 158.668 60.466 159.795 59.264 161.223 59.264 C 162.651 59.264 163.778 60.542 163.778 62.044 Z " fill="rgb(255,255,255)"/><path d=" M 197.666 70.235 C 197.666 70.235 191.58 68.507 188.123 72.489 C 184.667 76.471 181.661 81.506 177.153 82.933 C 172.644 84.361 173.797 85.928 173.02 88.193 C 172.244 90.459 180.433 101.118 184.691 101.418 C 193.716 102.053 212.136 98.82 214.047 92.326 C 219.757 86.766 211.417 83.985 208.486 85.037 C 204.278 84.662 198.418 78.5 197.666 70.235 Z " fill="rgb(255,105,31)"/></g></svg>